<svg width="312" height="180" viewBox="0 0 312 180" fill="none" xmlns="http://www.w3.org/2000/svg">
<path d="M155.686 311.261C154.043 311.261 152.384 311.235 150.756 311.184L150.793 310.002C153.131 310.075 155.517 310.095 157.867 310.063L157.883 311.246C157.152 311.256 156.419 311.261 155.686 311.261ZM165.006 310.987L164.937 309.805C167.278 309.667 169.65 309.473 171.986 309.229L172.11 310.405C169.756 310.652 167.366 310.848 165.006 310.987ZM143.639 310.802C141.277 310.621 138.891 310.385 136.546 310.097L136.69 308.922C139.018 309.207 141.385 309.443 143.729 309.622L143.639 310.802ZM179.18 309.501L179.002 308.331C181.329 307.978 183.674 307.569 185.969 307.113L186.2 308.273C183.886 308.732 181.524 309.146 179.18 309.501ZM129.493 309.068C127.16 308.673 124.806 308.219 122.494 307.717L122.746 306.56C125.039 307.058 127.376 307.509 129.691 307.901L129.493 309.068ZM193.158 306.724L192.873 305.575C195.157 305.01 197.454 304.386 199.7 303.72L200.036 304.855C197.773 305.526 195.459 306.155 193.158 306.724ZM115.566 306.045C113.277 305.437 110.975 304.767 108.721 304.055L109.078 302.927C111.314 303.634 113.599 304.298 115.87 304.901L115.566 306.045ZM206.821 302.672L206.433 301.554C208.649 300.784 210.878 299.951 213.059 299.078L213.499 300.177C211.301 301.056 209.055 301.895 206.821 302.672H206.821ZM101.958 301.745C99.7357 300.928 97.4994 300.047 95.3119 299.126L95.7715 298.035C97.9422 298.949 100.161 299.823 102.367 300.634L101.958 301.745ZM220.039 297.384L219.549 296.307C221.677 295.341 223.817 294.308 225.908 293.24L226.447 294.294C224.34 295.371 222.184 296.41 220.039 297.384H220.039ZM232.706 290.912L232.12 289.884C234.161 288.72 236.199 287.496 238.175 286.246L238.808 287.246C236.816 288.505 234.764 289.739 232.706 290.912H232.706ZM244.737 283.303L244.059 282.334C245.981 280.991 247.899 279.585 249.76 278.155L250.482 279.094C248.607 280.535 246.674 281.951 244.737 283.303ZM64.2921 281.637C62.3813 280.249 60.4724 278.796 58.6182 277.316L59.3569 276.391C61.197 277.86 63.0914 279.302 64.9875 280.678L64.2921 281.637ZM256.03 274.627L255.267 273.722C257.058 272.211 258.841 270.636 260.566 269.041L261.37 269.91C259.632 271.517 257.835 273.104 256.03 274.627H256.03ZM53.1484 272.742C51.3687 271.184 49.6006 269.564 47.8936 267.925L48.7133 267.071C50.4076 268.697 52.1621 270.306 53.9282 271.852L53.1484 272.742ZM266.491 264.954L265.648 264.123C267.3 262.45 268.934 260.718 270.503 258.977L271.383 259.769C269.801 261.524 268.156 263.268 266.491 264.954ZM42.8647 262.876C41.2319 261.159 39.6194 259.385 38.0718 257.603L38.9661 256.828C40.5018 258.596 42.102 260.357 43.7226 262.06L42.8647 262.876ZM276.034 254.366L275.119 253.615C276.611 251.8 278.08 249.927 279.487 248.047L280.435 248.756C279.018 250.65 277.537 252.538 276.034 254.366L276.034 254.366ZM33.5249 252.12C32.0586 250.267 30.6148 248.355 29.2335 246.436L30.1942 245.745C31.5652 247.649 32.9979 249.547 34.4533 251.386L33.5249 252.12ZM284.575 242.949L283.596 242.285C284.916 240.341 286.209 238.341 287.439 236.339L288.448 236.958C287.208 238.976 285.905 240.991 284.575 242.949L284.575 242.949ZM25.2072 240.565C23.9172 238.588 22.6546 236.554 21.4542 234.517L22.474 233.916C23.6654 235.937 24.9184 237.956 26.1986 239.918L25.2072 240.565ZM292.043 230.795L291.007 230.222C292.143 228.166 293.247 226.055 294.29 223.946L295.351 224.471C294.301 226.595 293.188 228.723 292.043 230.795ZM298.365 218L297.281 217.525C298.224 215.371 299.13 213.166 299.974 210.97L301.079 211.394C300.229 213.607 299.316 215.83 298.365 218ZM11.9143 215.447C11.0067 213.269 10.1376 211.041 9.33116 208.825L10.444 208.42C11.244 210.62 12.1066 212.83 13.0069 214.991L11.9143 215.447ZM303.485 204.667L302.361 204.295C303.1 202.07 303.797 199.795 304.433 197.534L305.573 197.854C304.932 200.133 304.229 202.425 303.485 204.667ZM7.05061 202.074C6.34621 199.818 5.6843 197.514 5.08338 195.225L6.22857 194.924C6.82487 197.196 7.48186 199.483 8.18077 201.721L7.05061 202.074ZM307.344 190.952L306.19 190.684C306.72 188.403 307.205 186.073 307.631 183.761L308.795 183.975C308.366 186.306 307.878 188.652 307.344 190.952V190.952ZM3.43471 188.292C2.94101 185.981 2.49416 183.626 2.10684 181.292L3.27458 181.098C3.65929 183.415 4.10268 185.751 4.59261 188.045L3.43471 188.292ZM309.923 176.941L308.75 176.78C309.069 174.462 309.337 172.098 309.549 169.755L310.729 169.861C310.515 172.223 310.244 174.605 309.923 176.941V176.941ZM1.10155 174.238C0.822332 171.896 0.593121 169.51 0.419984 167.147L1.60101 167.06C1.77242 169.406 2.00019 171.773 2.27738 174.098L1.10155 174.238ZM311.211 162.753L310.028 162.7C310.133 160.355 310.187 157.976 310.187 155.631H311.371C311.371 157.994 311.317 160.391 311.211 162.753ZM0.0612816 160.03C0.0208152 158.579 0.000307819 157.098 0 155.631C0 154.72 0.00780447 153.811 0.0234125 152.904L1.20733 152.924C1.19172 153.825 1.18392 154.727 1.18392 155.631C1.18421 157.087 1.20473 158.557 1.24462 159.998L0.0612816 160.03ZM1.48828 145.859L0.306679 145.785C0.454379 143.42 0.658445 141.032 0.912509 138.686L2.0895 138.813C1.83716 141.142 1.6351 143.512 1.48826 145.859H1.48828ZM309.423 138.639C309.186 136.305 308.861 135.168 308.518 132.845L309.689 132.672C310.035 135.013 310.331 136.799 310.57 139.15L309.423 138.639ZM3.01123 131.803L1.84119 131.622C2.20393 129.281 2.62536 126.921 3.0939 124.608L4.25414 124.842C3.78934 127.138 3.37109 129.48 3.01123 131.803ZM307.323 125.876C306.871 123.568 306.362 121.244 305.808 118.969L306.958 118.689C307.516 120.981 308.03 123.323 308.485 125.649L307.323 125.876ZM5.81553 117.946L4.66716 117.658C5.24207 115.366 5.87883 113.055 6.55981 110.788L7.69342 111.129C7.01795 113.378 6.3861 115.671 5.81553 117.946ZM303.977 112.139C303.317 109.885 302.595 107.619 301.833 105.401L302.952 105.016C303.721 107.251 304.448 109.536 305.113 111.806L303.977 112.139ZM9.89103 104.387L8.77418 103.994C9.56095 101.757 10.4104 99.5092 11.299 97.313L12.3967 97.7568C11.5149 99.936 10.6717 102.167 9.89103 104.387ZM299.379 98.7684C298.516 96.5904 297.591 94.4045 296.63 92.2713L297.71 91.7853C298.678 93.935 299.61 96.1376 300.48 98.3321L299.379 98.7684ZM15.2048 91.2516L14.129 90.7575C15.1178 88.6049 16.1702 86.4462 17.257 84.3416L18.3091 84.8842C17.2304 86.973 16.1861 89.1152 15.2048 91.2516ZM293.585 85.9047C292.525 83.8154 291.403 81.7218 290.248 79.6827L291.279 79.0996C292.442 81.1546 293.573 83.2641 294.641 85.3696L293.585 85.9047ZM21.7028 78.6679L20.6767 78.0774C21.8577 76.0273 23.1032 73.9753 24.3787 71.9787L25.3765 72.6155C24.1108 74.597 22.8746 76.6335 21.7028 78.6679ZM286.63 73.6172C285.379 71.6264 284.069 69.6432 282.736 67.7223L283.708 67.0479C285.051 68.9835 286.372 70.9818 287.632 72.9879L286.63 73.6172ZM29.3231 66.739L28.3554 66.0571C29.7203 64.1221 31.1473 62.1934 32.5977 60.3245L33.533 61.0497C32.0939 62.9048 30.6773 64.8187 29.3231 66.739ZM278.576 62.0096C277.149 60.1416 275.664 58.2846 274.159 56.4903L275.067 55.7301C276.582 57.5382 278.08 59.4091 279.517 61.2913L278.576 62.0096ZM37.9973 55.5602L37.0961 54.7927C38.6277 52.9944 40.2241 51.2044 41.8407 49.4725L42.7061 50.2798C41.1019 51.9987 39.5177 53.7754 37.9973 55.5602ZM269.495 51.1764C267.905 49.4459 266.255 47.7307 264.592 46.0792L265.427 45.2395C267.102 46.9041 268.764 48.632 270.367 50.3754L269.495 51.1764ZM47.649 45.221L46.8212 44.375C48.5141 42.7193 50.266 41.0825 52.0277 39.5101L52.8162 40.3931C51.0678 41.9534 49.3292 43.5778 47.649 45.221ZM259.463 41.209C257.72 39.6288 255.92 38.0703 254.115 36.5767L254.869 35.6648C256.689 37.1697 258.502 38.74 260.258 40.3324L259.463 41.209ZM58.1968 35.8053L57.4493 34.8876C59.2804 33.397 61.1727 31.9268 63.0741 30.5179L63.7794 31.4685C61.8922 32.867 60.014 34.3259 58.1968 35.8053ZM69.5518 27.3922L68.8911 26.4103C70.8508 25.0922 72.8683 23.8015 74.8879 22.5732L75.5029 23.5845C73.499 24.8032 71.4968 26.0844 69.5518 27.3922ZM81.6205 20.0536L81.0523 19.0152C83.1256 17.8811 85.2515 16.7808 87.3707 15.7444L87.891 16.8077C85.788 17.836 83.6782 18.9279 81.6205 20.0536ZM224.502 17.3116C222.395 16.2624 220.237 15.2488 218.088 14.2991L218.567 13.2167C220.733 14.1737 222.908 15.1951 225.03 16.2523L224.502 17.3116ZM94.3014 13.8532L93.8309 12.7674C95.9975 11.8286 98.2139 10.9283 100.418 10.0912L100.838 11.1979C98.651 12.0283 96.4516 12.9217 94.3014 13.8532ZM211.54 11.5842C209.348 10.7344 207.105 9.92363 204.871 9.1747L205.248 8.05245C207.498 8.80745 209.759 9.62428 211.968 10.481L211.54 11.5842ZM107.507 8.84041L107.138 7.71585C109.388 6.97847 111.684 6.28414 113.961 5.65281L114.278 6.79297C112.018 7.41969 109.74 8.10852 107.507 8.84041ZM198.115 7.08075C195.857 6.43728 193.554 5.83802 191.27 5.29972L191.541 4.14801C193.843 4.69035 196.164 5.29423 198.44 5.94233L198.115 7.08075ZM121.135 5.05962L120.872 3.90587C123.178 3.37913 125.528 2.8992 127.855 2.47966L128.065 3.64409C125.756 4.06075 123.424 4.53692 121.135 5.05962ZM184.349 3.83652C182.044 3.40398 179.696 3.01911 177.37 2.69261L177.534 1.52067C179.878 1.84977 182.245 2.23752 184.568 2.67325L184.349 3.83652ZM135.054 2.54873L134.897 1.37563C137.241 1.06299 139.624 0.800054 141.981 0.594912L142.084 1.77379C139.745 1.97777 137.38 2.23839 135.054 2.54873ZM170.344 1.86972C168.012 1.65012 165.638 1.4808 163.288 1.36725L163.346 0.184928C165.714 0.299639 168.105 0.470117 170.455 0.691468L170.344 1.86972ZM149.143 1.31986L149.094 0.13754C151.269 0.0468132 153.487 0.000579916 155.685 0L156.221 0.000870209L156.218 1.18437L155.685 1.1835C153.504 1.18405 151.302 1.22999 149.143 1.31985V1.31986Z" fill="#3F3D56"/>
</svg>
