<svg width="241" height="223" viewBox="0 0 241 223" fill="none" xmlns="http://www.w3.org/2000/svg">
<path d="M155.686 222.261C154.043 222.261 152.384 222.235 150.756 222.184L150.793 221.002C153.131 221.075 155.517 221.095 157.867 221.063L157.883 222.246C157.152 222.256 156.419 222.261 155.686 222.261ZM165.006 221.987L164.937 220.805C167.278 220.667 169.65 220.473 171.986 220.229L172.11 221.405C169.756 221.652 167.366 221.848 165.006 221.987ZM143.639 221.802C141.277 221.621 138.891 221.385 136.546 221.097L136.69 219.922C139.018 220.207 141.385 220.443 143.729 220.622L143.639 221.802ZM179.18 220.501L179.002 219.331C181.329 218.978 183.674 218.569 185.969 218.113L186.2 219.273C183.886 219.732 181.524 220.146 179.18 220.501ZM129.493 220.068C127.16 219.673 124.806 219.219 122.494 218.717L122.746 217.56C125.039 218.058 127.376 218.509 129.691 218.901L129.493 220.068ZM193.158 217.724L192.873 216.575C195.157 216.01 197.454 215.386 199.7 214.72L200.036 215.855C197.773 216.526 195.459 217.155 193.158 217.724ZM115.566 217.045C113.277 216.437 110.975 215.767 108.721 215.055L109.078 213.927C111.314 214.634 113.599 215.298 115.87 215.901L115.566 217.045ZM206.821 213.672L206.433 212.554C208.649 211.784 210.878 210.951 213.059 210.078L213.499 211.177C211.301 212.056 209.055 212.895 206.821 213.672H206.821ZM101.958 212.745C99.7357 211.928 97.4994 211.047 95.3119 210.126L95.7715 209.035C97.9422 209.949 100.161 210.823 102.367 211.634L101.958 212.745ZM220.039 208.384L219.549 207.307C221.677 206.341 223.817 205.308 225.908 204.24L226.447 205.294C224.34 206.371 222.184 207.41 220.039 208.384H220.039ZM232.706 201.912L232.12 200.884C234.161 199.72 236.199 198.496 238.175 197.246L238.808 198.246C236.816 199.505 234.764 200.739 232.706 201.912H232.706ZM244.737 194.303L244.059 193.334C245.981 191.991 247.899 190.585 249.76 189.155L250.482 190.094C248.607 191.535 246.674 192.951 244.737 194.303ZM64.2921 192.637C62.3813 191.249 60.4724 189.796 58.6182 188.316L59.3569 187.391C61.197 188.86 63.0914 190.302 64.9875 191.678L64.2921 192.637ZM256.03 185.627L255.267 184.722C257.058 183.211 258.841 181.636 260.566 180.041L261.37 180.91C259.632 182.517 257.835 184.104 256.03 185.627H256.03ZM53.1484 183.742C51.3687 182.184 49.6006 180.564 47.8936 178.925L48.7133 178.071C50.4076 179.697 52.1621 181.306 53.9282 182.852L53.1484 183.742ZM266.491 175.954L265.648 175.123C267.3 173.45 268.934 171.718 270.503 169.977L271.383 170.769C269.801 172.524 268.156 174.268 266.491 175.954ZM42.8647 173.876C41.2319 172.159 39.6194 170.385 38.0718 168.603L38.9661 167.828C40.5018 169.596 42.102 171.357 43.7226 173.06L42.8647 173.876ZM276.034 165.366L275.119 164.615C276.611 162.8 278.08 160.927 279.487 159.047L280.435 159.756C279.018 161.65 277.537 163.538 276.034 165.366L276.034 165.366ZM33.5249 163.12C32.0586 161.267 30.6148 159.355 29.2335 157.436L30.1942 156.745C31.5652 158.649 32.9979 160.547 34.4533 162.386L33.5249 163.12ZM284.575 153.949L283.596 153.285C284.916 151.341 286.209 149.341 287.439 147.339L288.448 147.958C287.208 149.976 285.905 151.991 284.575 153.949L284.575 153.949ZM25.2072 151.565C23.9172 149.588 22.6546 147.554 21.4542 145.517L22.474 144.916C23.6654 146.937 24.9184 148.956 26.1986 150.918L25.2072 151.565ZM292.043 141.795L291.007 141.222C292.143 139.166 293.247 137.055 294.29 134.946L295.351 135.471C294.301 137.595 293.188 139.723 292.043 141.795ZM298.365 129L297.281 128.525C298.224 126.371 299.13 124.166 299.974 121.97L301.079 122.394C300.229 124.607 299.316 126.83 298.365 129ZM11.9143 126.447C11.0067 124.269 10.1376 122.041 9.33116 119.825L10.444 119.42C11.244 121.62 12.1066 123.83 13.0069 125.991L11.9143 126.447ZM303.485 115.667L302.361 115.295C303.1 113.07 303.797 110.795 304.433 108.534L305.573 108.854C304.932 111.133 304.229 113.425 303.485 115.667ZM7.05061 113.074C6.34621 110.818 5.6843 108.514 5.08338 106.225L6.22857 105.924C6.82487 108.196 7.48186 110.483 8.18077 112.721L7.05061 113.074ZM307.344 101.952L306.19 101.684C306.72 99.4028 307.205 97.0734 307.631 94.7613L308.795 94.9751C308.366 97.3057 307.878 99.6525 307.344 101.952V101.952ZM3.43471 99.2924C2.94101 96.9809 2.49416 94.626 2.10684 92.292L3.27458 92.0978C3.65929 94.4145 4.10268 96.7515 4.59261 99.0451L3.43471 99.2924ZM309.923 87.9405L308.75 87.7799C309.069 85.462 309.337 83.0984 309.549 80.7545L310.729 80.8609C310.515 83.2233 310.244 85.6048 309.923 87.9406V87.9405ZM1.10155 85.2383C0.822332 82.8956 0.593121 80.5095 0.419984 78.1466L1.60101 78.0599C1.77242 80.4055 2.00019 82.7731 2.27738 85.0985L1.10155 85.2383ZM311.211 73.753L310.028 73.6998C310.133 71.3548 310.187 68.9762 310.187 66.6306H311.371C311.371 68.9941 311.317 71.3906 311.211 73.753ZM0.0612816 71.03C0.0208152 69.5789 0.000307819 68.0984 0 66.6306C0 65.7198 0.00780447 64.8108 0.0234125 63.9035L1.20733 63.9243C1.19172 64.8247 1.18392 65.7268 1.18392 66.6306C1.18421 68.0874 1.20473 69.557 1.24462 70.9976L0.0612816 71.03ZM1.48828 56.8589L0.306679 56.7849C0.454379 54.4202 0.658445 52.0318 0.912509 49.6859L2.0895 49.8133C1.83716 52.1416 1.6351 54.5118 1.48826 56.8589H1.48828ZM309.423 49.6386C309.186 47.3054 308.861 46.1678 308.518 43.8447L309.689 43.6719C310.035 46.0126 310.331 47.7994 310.57 50.1502L309.423 49.6386ZM3.01123 42.803L1.84119 42.6222C2.20393 40.2809 2.62536 37.9211 3.0939 35.6076L4.25414 35.8422C3.78934 38.1381 3.37109 40.48 3.01123 42.803ZM307.323 36.8763C306.871 34.5676 306.362 32.2437 305.808 29.9691L306.958 29.6895C307.516 31.9813 308.03 34.3232 308.485 36.6492L307.323 36.8763ZM5.81553 28.946L4.66716 28.6582C5.24207 26.3661 5.87883 24.0548 6.55981 21.7884L7.69342 22.1287C7.01795 24.3778 6.3861 26.6715 5.81553 28.946ZM303.977 23.1389C303.317 20.8854 302.595 18.6187 301.833 16.4008L302.952 16.0159C303.721 18.2509 304.448 20.5355 305.113 22.806L303.977 23.1389ZM9.89103 15.3869L8.77418 14.9945C9.56095 12.7572 10.4104 10.5092 11.299 8.31302L12.3967 8.75683C11.5149 10.936 10.6717 13.1669 9.89103 15.3869ZM299.379 9.76842C298.516 7.59038 297.591 5.40453 296.63 3.27128L297.71 2.78528C298.678 4.93501 299.61 7.13761 300.48 9.33211L299.379 9.76842ZM15.2048 2.2516L14.129 1.75749C15.1178 -0.395119 16.1702 -2.55379 17.257 -4.65844L18.3091 -4.11581C17.2304 -2.02703 16.1861 0.115173 15.2048 2.2516ZM293.585 -3.09525C292.525 -5.18459 291.403 -7.27824 290.248 -9.3173L291.279 -9.90039C292.442 -7.84544 293.573 -5.73588 294.641 -3.63036L293.585 -3.09525ZM21.7028 -10.3321L20.6767 -10.9226C21.8577 -12.9727 23.1032 -15.0247 24.3787 -17.0213L25.3765 -16.3845C24.1108 -14.403 22.8746 -12.3665 21.7028 -10.3321ZM286.63 -15.3828C285.379 -17.3736 284.069 -19.3568 282.736 -21.2777L283.708 -21.9521C285.051 -20.0165 286.372 -18.0182 287.632 -16.0121L286.63 -15.3828ZM29.3231 -22.261L28.3554 -22.9429C29.7203 -24.8779 31.1473 -26.8066 32.5977 -28.6755L33.533 -27.9503C32.0939 -26.0952 30.6773 -24.1813 29.3231 -22.261ZM278.576 -26.9904C277.149 -28.8584 275.664 -30.7154 274.159 -32.5097L275.067 -33.2699C276.582 -31.4618 278.08 -29.5909 279.517 -27.7087L278.576 -26.9904ZM37.9973 -33.4398L37.0961 -34.2073C38.6277 -36.0056 40.2241 -37.7956 41.8407 -39.5275L42.7061 -38.7202C41.1019 -37.0013 39.5177 -35.2246 37.9973 -33.4398ZM269.495 -37.8236C267.905 -39.5541 266.255 -41.2693 264.592 -42.9208L265.427 -43.7605C267.102 -42.0959 268.764 -40.368 270.367 -38.6246L269.495 -37.8236ZM47.649 -43.779L46.8212 -44.625C48.5141 -46.2807 50.266 -47.9175 52.0277 -49.4899L52.8162 -48.6069C51.0678 -47.0466 49.3292 -45.4222 47.649 -43.779ZM259.463 -47.791C257.72 -49.3712 255.92 -50.9297 254.115 -52.4233L254.869 -53.3352C256.689 -51.8303 258.502 -50.26 260.258 -48.6676L259.463 -47.791ZM58.1968 -53.1947L57.4493 -54.1124C59.2804 -55.603 61.1727 -57.0732 63.0741 -58.4821L63.7794 -57.5315C61.8922 -56.133 60.014 -54.6741 58.1968 -53.1947ZM69.5518 -61.6078L68.8911 -62.5897C70.8508 -63.9078 72.8683 -65.1985 74.8879 -66.4268L75.5029 -65.4155C73.499 -64.1968 71.4968 -62.9156 69.5518 -61.6078ZM81.6205 -68.9464L81.0523 -69.9848C83.1256 -71.1189 85.2515 -72.2192 87.3707 -73.2556L87.891 -72.1923C85.788 -71.164 83.6782 -70.0721 81.6205 -68.9464ZM224.502 -71.6884C222.395 -72.7376 220.237 -73.7512 218.088 -74.7009L218.567 -75.7833C220.733 -74.8263 222.908 -73.8049 225.03 -72.7477L224.502 -71.6884ZM94.3014 -75.1468L93.8309 -76.2326C95.9975 -77.1714 98.2139 -78.0717 100.418 -78.9088L100.838 -77.8021C98.651 -76.9717 96.4516 -76.0783 94.3014 -75.1468ZM211.54 -77.4158C209.348 -78.2656 207.105 -79.0764 204.871 -79.8253L205.248 -80.9476C207.498 -80.1925 209.759 -79.3757 211.968 -78.519L211.54 -77.4158ZM107.507 -80.1596L107.138 -81.2841C109.388 -82.0215 111.684 -82.7159 113.961 -83.3472L114.278 -82.207C112.018 -81.5803 109.74 -80.8915 107.507 -80.1596ZM198.115 -81.9192C195.857 -82.5627 193.554 -83.162 191.27 -83.7003L191.541 -84.852C193.843 -84.3097 196.164 -83.7058 198.44 -83.0577L198.115 -81.9192ZM121.135 -83.9404L120.872 -85.0941C123.178 -85.6209 125.528 -86.1008 127.855 -86.5203L128.065 -85.3559C125.756 -84.9393 123.424 -84.4631 121.135 -83.9404ZM184.349 -85.1635C182.044 -85.596 179.696 -85.9809 177.37 -86.3074L177.534 -87.4793C179.878 -87.1502 182.245 -86.7625 184.568 -86.3268L184.349 -85.1635ZM135.054 -86.4513L134.897 -87.6244C137.241 -87.937 139.624 -88.1999 141.981 -88.4051L142.084 -87.2262C139.745 -87.0222 137.38 -86.7616 135.054 -86.4513ZM170.344 -87.1303C168.012 -87.3499 165.638 -87.5192 163.288 -87.6328L163.346 -88.8151C165.714 -88.7004 168.105 -88.5299 170.455 -88.3085L170.344 -87.1303ZM149.143 -87.6801L149.094 -88.8625C151.269 -88.9532 153.487 -88.9994 155.685 -89L156.221 -88.9991L156.218 -87.8156L155.685 -87.8165C153.504 -87.816 151.302 -87.77 149.143 -87.6802V-87.6801Z" fill="#3F3D56"/>
</svg>
