<svg width="248" height="51" viewBox="0 0 248 51" fill="none" xmlns="http://www.w3.org/2000/svg">
<path d="M22.5538 16.1161C26.6974 16.1161 30.0205 17.3487 32.523 19.8139C35.0666 22.2791 36.3384 25.9975 36.3384 30.9689V50.0741H24.6461V32.8794C24.6461 28.3188 22.8205 26.0385 19.1691 26.0385C17.1589 26.0385 15.5384 26.6958 14.3076 28.0107C13.1179 29.3255 12.523 31.2976 12.523 33.9271V50.0741H0.830688V16.6708H11.9691V20.307C13.282 18.9511 14.8409 17.924 16.6461 17.2255C18.4513 16.4859 20.4205 16.1161 22.5538 16.1161ZM75.6793 16.6708V50.0741H64.5409V46.4995C63.3101 47.8554 61.8332 48.8825 60.1101 49.581C58.387 50.2796 56.5613 50.6287 54.633 50.6287C50.3253 50.6287 46.8793 49.3551 44.2945 46.8077C41.7511 44.2603 40.4791 40.4392 40.4791 35.3446V16.6708H52.1716V33.4341C52.1716 35.9403 52.6434 37.7688 53.587 38.9191C54.5305 40.0695 55.9049 40.6447 57.7101 40.6447C59.5561 40.6447 61.0536 40.0078 62.2024 38.7342C63.392 37.4194 63.987 35.4268 63.987 32.7561V16.6708H75.6793ZM103.149 48.7182C102.164 49.3345 100.954 49.8069 99.5182 50.1357C98.1234 50.4645 96.6259 50.6287 95.0259 50.6287C90.6772 50.6287 87.3336 49.5604 84.9951 47.424C82.6566 45.2876 81.4874 42.1032 81.4874 37.8714V26.6548H76.6259V17.9034H81.4874V9.21363H93.1797V17.9034H100.81V26.6548H93.1797V37.7481C93.1797 38.9397 93.4874 39.8846 94.1028 40.5831C94.7591 41.2404 95.6207 41.5692 96.6874 41.5692C98.0413 41.5692 99.2311 41.22 100.257 40.5215L103.149 48.7182ZM115.719 20.6767C116.909 19.1565 118.447 18.0267 120.335 17.2871C122.263 16.5065 124.458 16.1161 126.919 16.1161V26.6548C125.852 26.5316 124.97 26.4699 124.273 26.4699C121.77 26.4699 119.801 27.1479 118.365 28.5037C116.97 29.8596 116.273 31.9344 116.273 34.7283V50.0741H104.581V16.6708H115.719V20.6767ZM128.667 16.6708H140.36V50.0741H128.667V16.6708ZM134.513 12.973C132.38 12.973 130.657 12.3773 129.344 11.1858C128.031 9.99426 127.375 8.51515 127.375 6.74844C127.375 4.98173 128.031 3.50262 129.344 2.31111C130.657 1.1196 132.38 0.523849 134.513 0.523849C136.647 0.523849 138.37 1.09906 139.683 2.24948C140.995 3.35881 141.652 4.79685 141.652 6.56356C141.652 8.41244 140.995 9.95319 139.683 11.1858C138.37 12.3773 136.647 12.973 134.513 12.973ZM144.881 4.34489H156.574V50.0741H144.881V4.34489ZM161.095 16.6708H172.787V50.0741H161.095V16.6708ZM166.941 12.973C164.808 12.973 163.085 12.3773 161.772 11.1858C160.459 9.99426 159.803 8.51515 159.803 6.74844C159.803 4.98173 160.459 3.50262 161.772 2.31111C163.085 1.1196 164.808 0.523849 166.941 0.523849C169.075 0.523849 170.798 1.09906 172.11 2.24948C173.423 3.35881 174.08 4.79685 174.08 6.56356C174.08 8.41244 173.423 9.95319 172.11 11.1858C170.798 12.3773 169.075 12.973 166.941 12.973ZM190.048 17.9034H197.986V26.6548H190.355V50.0741H178.663V26.6548H173.801V17.9034H178.663V17.0406C178.663 12.973 179.873 9.74775 182.294 7.36474C184.755 4.98173 188.181 3.79022 192.571 3.79022C194.048 3.79022 195.483 3.93403 196.879 4.22163C198.273 4.50923 199.421 4.94063 200.325 5.51585L197.433 13.7742C196.283 13.1168 195.113 12.7881 193.925 12.7881C192.694 12.7881 191.729 13.1579 191.032 13.8975C190.376 14.637 190.048 15.7258 190.048 17.1638V17.9034ZM232.963 33.4341C232.963 33.5163 232.902 34.4818 232.779 36.3307H208.533C209.025 38.0563 209.969 39.3915 211.363 40.3366C212.8 41.2404 214.585 41.6924 216.717 41.6924C218.317 41.6924 219.692 41.4665 220.84 41.0145C222.031 40.5625 223.221 39.8229 224.41 38.7958L230.563 45.2053C227.323 48.8209 222.585 50.6287 216.348 50.6287C212.452 50.6287 209.025 49.8892 206.071 48.4101C203.117 46.931 200.821 44.8766 199.179 42.2471C197.579 39.6176 196.779 36.6388 196.779 33.3108C196.779 30.0238 197.56 27.0862 199.117 24.4978C200.717 21.8683 202.913 19.8139 205.702 18.3348C208.492 16.8557 211.631 16.1161 215.117 16.1161C218.44 16.1161 221.456 16.8146 224.163 18.2116C226.871 19.5674 229.006 21.5602 230.563 24.1896C232.163 26.7781 232.963 29.8596 232.963 33.4341ZM215.179 24.4361C213.375 24.4361 211.856 24.9498 210.625 25.9769C209.436 27.004 208.677 28.401 208.348 30.1677H222.01C221.683 28.401 220.902 27.004 219.671 25.9769C218.483 24.9498 216.985 24.4361 215.179 24.4361ZM240.2 50.6287C238.231 50.6287 236.569 49.9714 235.215 48.6566C233.861 47.3418 233.185 45.6778 233.185 43.6646C233.185 41.6102 233.842 39.9462 235.154 38.6726C236.508 37.399 238.19 36.7621 240.2 36.7621C242.252 36.7621 243.935 37.399 245.246 38.6726C246.56 39.9462 247.215 41.6102 247.215 43.6646C247.215 45.6778 246.538 47.3418 245.185 48.6566C243.873 49.9714 242.211 50.6287 240.2 50.6287Z" fill="#00B049"/>
</svg>
