<svg width="251" height="312" viewBox="0 0 251 312" fill="none" xmlns="http://www.w3.org/2000/svg">
<path d="M94.6855 311.261C93.0432 311.261 91.384 311.235 89.7556 311.184L89.7926 310.002C92.1309 310.075 94.5173 310.095 96.8666 310.063L96.8828 311.246C96.1515 311.256 95.4191 311.261 94.6855 311.261ZM104.006 310.987L103.937 309.805C106.278 309.667 108.65 309.473 110.986 309.229L111.11 310.405C108.756 310.652 106.366 310.848 104.006 310.987ZM82.6387 310.802C80.2773 310.621 77.8909 310.385 75.5456 310.097L75.6902 308.922C78.0175 309.207 80.3854 309.443 82.729 309.622L82.6387 310.802ZM118.18 309.501L118.002 308.331C120.329 307.978 122.674 307.569 124.969 307.113L125.2 308.273C122.886 308.732 120.524 309.146 118.18 309.501ZM68.4933 309.068C66.1604 308.673 63.8056 308.219 61.4944 307.717L61.7456 306.56C64.0391 307.058 66.3757 307.509 68.691 307.901L68.4933 309.068ZM132.158 306.724L131.873 305.575C134.157 305.01 136.454 304.386 138.7 303.72L139.036 304.855C136.773 305.526 134.459 306.155 132.158 306.724ZM54.5657 306.045C52.2774 305.437 49.9746 304.767 47.7212 304.055L48.0779 302.927C50.3142 303.634 52.5994 304.298 54.8698 304.901L54.5657 306.045ZM145.821 302.672L145.433 301.554C147.649 300.784 149.878 299.951 152.059 299.078L152.499 300.177C150.301 301.056 148.055 301.895 145.821 302.672H145.821ZM40.9582 301.745C38.7357 300.928 36.4994 300.047 34.3119 299.126L34.7715 298.035C36.9422 298.949 39.1612 299.823 41.3669 300.634L40.9582 301.745ZM159.039 297.384L158.549 296.307C160.677 295.341 162.817 294.308 164.908 293.24L165.447 294.294C163.34 295.371 161.184 296.41 159.039 297.384H159.039ZM171.706 290.912L171.12 289.884C173.161 288.72 175.199 287.496 177.175 286.246L177.808 287.246C175.816 288.505 173.764 289.739 171.706 290.912H171.706ZM183.737 283.303L183.059 282.334C184.981 280.991 186.899 279.585 188.76 278.155L189.482 279.094C187.607 280.535 185.674 281.951 183.737 283.303ZM3.29211 281.637C1.38126 280.249 -0.527607 278.796 -2.38184 277.316L-1.64307 276.391C0.19698 277.86 2.09137 279.302 3.98749 280.678L3.29211 281.637ZM195.03 274.627L194.267 273.722C196.058 272.211 197.841 270.636 199.566 269.041L200.37 269.91C198.632 271.517 196.835 273.104 195.03 274.627H195.03ZM-7.85164 272.742C-9.63128 271.184 -11.3994 269.564 -13.1064 267.925L-12.2867 267.071C-10.5924 268.697 -8.83786 270.306 -7.07182 271.852L-7.85164 272.742ZM205.491 264.954L204.648 264.123C206.3 262.45 207.934 260.718 209.503 258.977L210.383 259.769C208.801 261.524 207.156 263.268 205.491 264.954ZM-18.1353 262.876C-19.7681 261.159 -21.3806 259.385 -22.9282 257.603L-22.0339 256.828C-20.4982 258.596 -18.898 260.357 -17.2774 262.06L-18.1353 262.876ZM215.034 254.366L214.119 253.615C215.611 251.8 217.08 249.927 218.487 248.047L219.435 248.756C218.018 250.65 216.537 252.538 215.034 254.366L215.034 254.366ZM-27.4751 252.12C-28.9414 250.267 -30.3852 248.355 -31.7665 246.436L-30.8058 245.745C-29.4348 247.649 -28.0021 249.547 -26.5467 251.386L-27.4751 252.12ZM223.575 242.949L222.596 242.285C223.916 240.341 225.209 238.341 226.439 236.339L227.448 236.958C226.208 238.976 224.905 240.991 223.575 242.949L223.575 242.949ZM-35.7928 240.565C-37.0828 238.588 -38.3454 236.554 -39.5458 234.517L-38.526 233.916C-37.3346 235.937 -36.0816 237.956 -34.8014 239.918L-35.7928 240.565ZM231.043 230.795L230.007 230.222C231.143 228.166 232.247 226.055 233.29 223.946L234.351 224.471C233.301 226.595 232.188 228.723 231.043 230.795ZM237.365 218L236.281 217.525C237.224 215.371 238.13 213.166 238.974 210.97L240.079 211.394C239.229 213.607 238.316 215.83 237.365 218ZM-49.0857 215.447C-49.9933 213.269 -50.8624 211.041 -51.6688 208.825L-50.556 208.42C-49.756 210.62 -48.8934 212.83 -47.9931 214.991L-49.0857 215.447ZM242.485 204.667L241.361 204.295C242.1 202.07 242.797 199.795 243.433 197.534L244.573 197.854C243.932 200.133 243.229 202.425 242.485 204.667ZM-53.9494 202.074C-54.6538 199.818 -55.3157 197.514 -55.9166 195.225L-54.7714 194.924C-54.1751 197.196 -53.5181 199.483 -52.8192 201.721L-53.9494 202.074ZM246.344 190.952L245.19 190.684C245.72 188.403 246.205 186.073 246.631 183.761L247.795 183.975C247.366 186.306 246.878 188.652 246.344 190.952V190.952ZM-57.5653 188.292C-58.059 185.981 -58.5058 183.626 -58.8932 181.292L-57.7254 181.098C-57.3407 183.415 -56.8973 185.751 -56.4074 188.045L-57.5653 188.292ZM248.923 176.941L247.75 176.78C248.069 174.462 248.337 172.098 248.549 169.755L249.729 169.861C249.515 172.223 249.244 174.605 248.923 176.941V176.941ZM-59.8985 174.238C-60.1777 171.896 -60.4069 169.51 -60.58 167.147L-59.399 167.06C-59.2276 169.406 -58.9998 171.773 -58.7226 174.098L-59.8985 174.238ZM250.211 162.753L249.028 162.7C249.133 160.355 249.187 157.976 249.187 155.631H250.371C250.371 157.994 250.317 160.391 250.211 162.753ZM-60.9387 160.03C-60.9792 158.579 -60.9997 157.098 -61 155.631C-61 154.72 -60.9922 153.811 -60.9766 152.904L-59.7927 152.924C-59.8083 153.825 -59.8161 154.727 -59.8161 155.631C-59.8158 157.087 -59.7953 158.557 -59.7554 159.998L-60.9387 160.03ZM-59.5117 145.859L-60.6933 145.785C-60.5456 143.42 -60.3416 141.032 -60.0875 138.686L-58.9105 138.813C-59.1628 141.142 -59.3649 143.512 -59.5117 145.859H-59.5117ZM248.423 138.639C248.186 136.305 247.861 135.168 247.518 132.845L248.689 132.672C249.035 135.013 249.331 136.799 249.57 139.15L248.423 138.639ZM-57.9888 131.803L-59.1588 131.622C-58.7961 129.281 -58.3746 126.921 -57.9061 124.608L-56.7459 124.842C-57.2107 127.138 -57.6289 129.48 -57.9888 131.803ZM246.323 125.876C245.871 123.568 245.362 121.244 244.808 118.969L245.958 118.689C246.516 120.981 247.03 123.323 247.485 125.649L246.323 125.876ZM-55.1845 117.946L-56.3328 117.658C-55.7579 115.366 -55.1212 113.055 -54.4402 110.788L-53.3066 111.129C-53.9821 113.378 -54.6139 115.671 -55.1845 117.946ZM242.977 112.139C242.317 109.885 241.595 107.619 240.833 105.401L241.952 105.016C242.721 107.251 243.448 109.536 244.113 111.806L242.977 112.139ZM-51.109 104.387L-52.2258 103.994C-51.439 101.757 -50.5896 99.5092 -49.701 97.313L-48.6033 97.7568C-49.4851 99.936 -50.3283 102.167 -51.109 104.387ZM238.379 98.7684C237.516 96.5904 236.591 94.4045 235.63 92.2713L236.71 91.7853C237.678 93.935 238.61 96.1376 239.48 98.3321L238.379 98.7684ZM-45.7952 91.2516L-46.871 90.7575C-45.8822 88.6049 -44.8298 86.4462 -43.743 84.3416L-42.6909 84.8842C-43.7696 86.973 -44.8139 89.1152 -45.7952 91.2516ZM232.585 85.9047C231.525 83.8154 230.403 81.7218 229.248 79.6827L230.279 79.0996C231.442 81.1546 232.573 83.2641 233.641 85.3696L232.585 85.9047ZM-39.2972 78.6679L-40.3233 78.0774C-39.1423 76.0273 -37.8968 73.9753 -36.6213 71.9787L-35.6235 72.6155C-36.8892 74.597 -38.1254 76.6335 -39.2972 78.6679ZM225.63 73.6172C224.379 71.6264 223.069 69.6432 221.736 67.7223L222.708 67.0479C224.051 68.9835 225.372 70.9818 226.632 72.9879L225.63 73.6172ZM-31.6769 66.739L-32.6446 66.0571C-31.2797 64.1221 -29.8527 62.1934 -28.4023 60.3245L-27.467 61.0497C-28.9061 62.9048 -30.3227 64.8187 -31.6769 66.739ZM217.576 62.0096C216.149 60.1416 214.664 58.2846 213.159 56.4903L214.067 55.7301C215.582 57.5382 217.08 59.4091 218.517 61.2913L217.576 62.0096ZM-23.0027 55.5602L-23.9039 54.7927C-22.3723 52.9944 -20.7759 51.2044 -19.1593 49.4725L-18.2939 50.2798C-19.8981 51.9987 -21.4823 53.7754 -23.0027 55.5602ZM208.495 51.1764C206.905 49.4459 205.255 47.7307 203.592 46.0792L204.427 45.2395C206.102 46.9041 207.764 48.632 209.367 50.3754L208.495 51.1764ZM-13.351 45.221L-14.1788 44.375C-12.4859 42.7193 -10.734 41.0825 -8.97227 39.5101L-8.18378 40.3931C-9.93219 41.9534 -11.6708 43.5778 -13.351 45.221ZM198.463 41.209C196.72 39.6288 194.92 38.0703 193.115 36.5767L193.869 35.6648C195.689 37.1697 197.502 38.74 199.258 40.3324L198.463 41.209ZM-2.80323 35.8053L-3.55069 34.8876C-1.71961 33.397 0.172737 31.9268 2.07411 30.5179L2.77939 31.4685C0.892197 32.867 -0.986008 34.3259 -2.80323 35.8053ZM8.55183 27.3922L7.89108 26.4103C9.85079 25.0922 11.8683 23.8015 13.8879 22.5732L14.5029 23.5845C12.499 24.8032 10.4968 26.0844 8.55183 27.3922ZM20.6205 20.0536L20.0523 19.0152C22.1256 17.8811 24.2515 16.7808 26.3707 15.7444L26.891 16.8077C24.788 17.836 22.6782 18.9279 20.6205 20.0536ZM163.502 17.3116C161.395 16.2624 159.237 15.2488 157.088 14.2991L157.567 13.2167C159.733 14.1737 161.908 15.1951 164.03 16.2523L163.502 17.3116ZM33.3014 13.8532L32.8309 12.7674C34.9975 11.8286 37.2139 10.9283 39.4182 10.0912L39.8385 11.1979C37.651 12.0283 35.4516 12.9217 33.3014 13.8532ZM150.54 11.5842C148.348 10.7344 146.105 9.92363 143.871 9.1747L144.248 8.05245C146.498 8.80745 148.759 9.62428 150.968 10.481L150.54 11.5842ZM46.5072 8.84041L46.1384 7.71585C48.3883 6.97847 50.6839 6.28414 52.961 5.65281L53.2775 6.79297C51.0177 7.41969 48.7398 8.10852 46.5072 8.84041ZM137.115 7.08075C134.857 6.43728 132.554 5.83802 130.27 5.29972L130.541 4.14801C132.843 4.69035 135.164 5.29423 137.44 5.94233L137.115 7.08075ZM60.1353 5.05962L59.8717 3.90587C62.1783 3.37913 64.5279 2.8992 66.855 2.47966L67.0654 3.64409C64.7557 4.06075 62.4243 4.53692 60.1353 5.05962ZM123.349 3.83652C121.044 3.40398 118.696 3.01911 116.37 2.69261L116.534 1.52067C118.878 1.84977 121.245 2.23752 123.568 2.67325L123.349 3.83652ZM74.0536 2.54873L73.897 1.37563C76.2405 1.06299 78.6239 0.800054 80.9808 0.594912L81.0837 1.77379C78.7448 1.97777 76.3798 2.23839 74.0536 2.54873ZM109.344 1.86972C107.012 1.65012 104.638 1.4808 102.288 1.36725L102.346 0.184928C104.714 0.299639 107.105 0.470117 109.455 0.691468L109.344 1.86972ZM88.1433 1.31986L88.0936 0.13754C90.2695 0.0468132 92.487 0.000579916 94.6855 0L95.2214 0.000870209L95.2179 1.18437L94.6855 1.1835C92.5038 1.18405 90.3024 1.22999 88.1433 1.31985V1.31986Z" fill="#3F3D56"/>
</svg>
