<svg width="220" height="27" viewBox="0 0 220 27" fill="none" xmlns="http://www.w3.org/2000/svg">
<path d="M13.13 14.544C14.3887 14.7787 15.4233 15.408 16.234 16.432C17.0447 17.456 17.45 18.6293 17.45 19.952C17.45 21.1467 17.1513 22.2027 16.554 23.12C15.978 24.016 15.1353 24.72 14.026 25.232C12.9167 25.744 11.6047 26 10.09 26H0.458V3.664H9.674C11.1887 3.664 12.49 3.90933 13.578 4.4C14.6873 4.89067 15.5193 5.57333 16.074 6.448C16.65 7.32267 16.938 8.31467 16.938 9.424C16.938 10.7253 16.586 11.8133 15.882 12.688C15.1993 13.5627 14.282 14.1813 13.13 14.544ZM4.938 12.88H9.034C10.1007 12.88 10.922 12.6453 11.498 12.176C12.074 11.6853 12.362 10.992 12.362 10.096C12.362 9.2 12.074 8.50667 11.498 8.016C10.922 7.52533 10.1007 7.28 9.034 7.28H4.938V12.88ZM9.45 22.352C10.538 22.352 11.3807 22.096 11.978 21.584C12.5967 21.072 12.906 20.3467 12.906 19.408C12.906 18.448 12.586 17.7013 11.946 17.168C11.306 16.6133 10.442 16.336 9.354 16.336H4.938V22.352H9.45ZM37.5005 16.752C37.5005 17.392 37.4578 17.968 37.3725 18.48H24.4125C24.5192 19.76 24.9672 20.7627 25.7565 21.488C26.5458 22.2133 27.5165 22.576 28.6685 22.576C30.3325 22.576 31.5165 21.8613 32.2205 20.432H37.0525C36.5405 22.1387 35.5592 23.5467 34.1085 24.656C32.6578 25.744 30.8765 26.288 28.7645 26.288C27.0578 26.288 25.5218 25.9147 24.1565 25.168C22.8125 24.4 21.7565 23.3227 20.9885 21.936C20.2418 20.5493 19.8685 18.9493 19.8685 17.136C19.8685 15.3013 20.2418 13.6907 20.9885 12.304C21.7352 10.9173 22.7805 9.85067 24.1245 9.104C25.4685 8.35733 27.0152 7.984 28.7645 7.984C30.4498 7.984 31.9538 8.34667 33.2765 9.072C34.6205 9.79733 35.6552 10.832 36.3805 12.176C37.1272 13.4987 37.5005 15.024 37.5005 16.752ZM32.8605 15.472C32.8392 14.32 32.4232 13.4027 31.6125 12.72C30.8018 12.016 29.8098 11.664 28.6365 11.664C27.5272 11.664 26.5885 12.0053 25.8205 12.688C25.0738 13.3493 24.6152 14.2773 24.4445 15.472H32.8605ZM62.7865 8.016C64.9625 8.016 66.7118 8.688 68.0345 10.032C69.3785 11.3547 70.0505 13.2107 70.0505 15.6V26H65.5705V16.208C65.5705 14.8213 65.2185 13.7653 64.5145 13.04C63.8105 12.2933 62.8505 11.92 61.6345 11.92C60.4185 11.92 59.4478 12.2933 58.7225 13.04C58.0185 13.7653 57.6665 14.8213 57.6665 16.208V26H53.1865V16.208C53.1865 14.8213 52.8345 13.7653 52.1305 13.04C51.4265 12.2933 50.4665 11.92 49.2505 11.92C48.0132 11.92 47.0318 12.2933 46.3065 13.04C45.6025 13.7653 45.2505 14.8213 45.2505 16.208V26H40.7705V8.272H45.2505V10.416C45.8265 9.66933 46.5625 9.08267 47.4585 8.656C48.3758 8.22933 49.3785 8.016 50.4665 8.016C51.8532 8.016 53.0905 8.31467 54.1785 8.912C55.2665 9.488 56.1092 10.32 56.7065 11.408C57.2825 10.384 58.1145 9.56267 59.2025 8.944C60.3118 8.32533 61.5065 8.016 62.7865 8.016ZM89.3188 21.872L93.7988 8.272H98.5668L92.0068 26H86.5668L80.0388 8.272H84.8388L89.3188 21.872ZM103.355 6.16C102.566 6.16 101.904 5.91467 101.371 5.424C100.859 4.912 100.603 4.28267 100.603 3.536C100.603 2.78933 100.859 2.17067 101.371 1.68C101.904 1.168 102.566 0.911999 103.355 0.911999C104.144 0.911999 104.795 1.168 105.307 1.68C105.84 2.17067 106.107 2.78933 106.107 3.536C106.107 4.28267 105.84 4.912 105.307 5.424C104.795 5.91467 104.144 6.16 103.355 6.16ZM105.563 8.272V26H101.083V8.272H105.563ZM119.813 8.016C121.925 8.016 123.632 8.688 124.933 10.032C126.235 11.3547 126.885 13.2107 126.885 15.6V26H122.405V16.208C122.405 14.8 122.053 13.7227 121.349 12.976C120.645 12.208 119.685 11.824 118.469 11.824C117.232 11.824 116.251 12.208 115.525 12.976C114.821 13.7227 114.469 14.8 114.469 16.208V26H109.989V8.272H114.469V10.48C115.067 9.712 115.824 9.11467 116.741 8.688C117.68 8.24 118.704 8.016 119.813 8.016ZM129.993 17.072C129.993 15.28 130.345 13.6907 131.049 12.304C131.775 10.9173 132.756 9.85067 133.994 9.104C135.231 8.35733 136.607 7.984 138.122 7.984C139.274 7.984 140.372 8.24 141.418 8.752C142.463 9.24267 143.295 9.904 143.914 10.736V2.32H148.458V26H143.914V23.376C143.359 24.2507 142.58 24.9547 141.578 25.488C140.575 26.0213 139.412 26.288 138.09 26.288C136.596 26.288 135.231 25.904 133.994 25.136C132.756 24.368 131.775 23.2907 131.049 21.904C130.345 20.496 129.993 18.8853 129.993 17.072ZM143.946 17.136C143.946 16.048 143.732 15.12 143.306 14.352C142.879 13.5627 142.303 12.9653 141.578 12.56C140.852 12.1333 140.074 11.92 139.242 11.92C138.41 11.92 137.642 12.1227 136.938 12.528C136.234 12.9333 135.658 13.5307 135.21 14.32C134.783 15.088 134.57 16.0053 134.57 17.072C134.57 18.1387 134.783 19.0773 135.21 19.888C135.658 20.6773 136.234 21.2853 136.938 21.712C137.663 22.1387 138.431 22.352 139.242 22.352C140.074 22.352 140.852 22.1493 141.578 21.744C142.303 21.3173 142.879 20.72 143.306 19.952C143.732 19.1627 143.946 18.224 143.946 17.136ZM160.705 26.288C158.998 26.288 157.462 25.9147 156.097 25.168C154.732 24.4 153.654 23.3227 152.865 21.936C152.097 20.5493 151.713 18.9493 151.713 17.136C151.713 15.3227 152.108 13.7227 152.897 12.336C153.708 10.9493 154.806 9.88267 156.193 9.136C157.58 8.368 159.126 7.984 160.833 7.984C162.54 7.984 164.086 8.368 165.473 9.136C166.86 9.88267 167.948 10.9493 168.737 12.336C169.548 13.7227 169.953 15.3227 169.953 17.136C169.953 18.9493 169.537 20.5493 168.705 21.936C167.894 23.3227 166.785 24.4 165.377 25.168C163.99 25.9147 162.433 26.288 160.705 26.288ZM160.705 22.384C161.516 22.384 162.273 22.192 162.977 21.808C163.702 21.4027 164.278 20.8053 164.705 20.016C165.132 19.2267 165.345 18.2667 165.345 17.136C165.345 15.4507 164.897 14.16 164.001 13.264C163.126 12.3467 162.049 11.888 160.769 11.888C159.489 11.888 158.412 12.3467 157.537 13.264C156.684 14.16 156.257 15.4507 156.257 17.136C156.257 18.8213 156.673 20.1227 157.505 21.04C158.358 21.936 159.425 22.384 160.705 22.384ZM179.712 17.072C179.712 15.28 180.064 13.6907 180.768 12.304C181.494 10.9173 182.464 9.85067 183.68 9.104C184.918 8.35733 186.294 7.984 187.808 7.984C189.131 7.984 190.283 8.25067 191.264 8.784C192.267 9.31733 193.067 9.98933 193.664 10.8V8.272H198.176V26H193.664V23.408C193.088 24.24 192.288 24.9333 191.264 25.488C190.262 26.0213 189.099 26.288 187.776 26.288C186.283 26.288 184.918 25.904 183.68 25.136C182.464 24.368 181.494 23.2907 180.768 21.904C180.064 20.496 179.712 18.8853 179.712 17.072ZM193.664 17.136C193.664 16.048 193.451 15.12 193.024 14.352C192.598 13.5627 192.022 12.9653 191.296 12.56C190.571 12.1333 189.792 11.92 188.96 11.92C188.128 11.92 187.36 12.1227 186.656 12.528C185.952 12.9333 185.376 13.5307 184.928 14.32C184.502 15.088 184.288 16.0053 184.288 17.072C184.288 18.1387 184.502 19.0773 184.928 19.888C185.376 20.6773 185.952 21.2853 186.656 21.712C187.382 22.1387 188.15 22.352 188.96 22.352C189.792 22.352 190.571 22.1493 191.296 21.744C192.022 21.3173 192.598 20.72 193.024 19.952C193.451 19.1627 193.664 18.224 193.664 17.136ZM210.424 26.288C208.717 26.288 207.181 25.9147 205.816 25.168C204.45 24.4 203.373 23.3227 202.584 21.936C201.816 20.5493 201.432 18.9493 201.432 17.136C201.432 15.3227 201.826 13.7227 202.616 12.336C203.426 10.9493 204.525 9.88267 205.912 9.136C207.298 8.368 208.845 7.984 210.552 7.984C212.258 7.984 213.805 8.368 215.192 9.136C216.578 9.88267 217.666 10.9493 218.456 12.336C219.266 13.7227 219.672 15.3227 219.672 17.136C219.672 18.9493 219.256 20.5493 218.424 21.936C217.613 23.3227 216.504 24.4 215.096 25.168C213.709 25.9147 212.152 26.288 210.424 26.288ZM210.424 22.384C211.234 22.384 211.992 22.192 212.696 21.808C213.421 21.4027 213.997 20.8053 214.424 20.016C214.85 19.2267 215.064 18.2667 215.064 17.136C215.064 15.4507 214.616 14.16 213.72 13.264C212.845 12.3467 211.768 11.888 210.488 11.888C209.208 11.888 208.13 12.3467 207.256 13.264C206.402 14.16 205.976 15.4507 205.976 17.136C205.976 18.8213 206.392 20.1227 207.224 21.04C208.077 21.936 209.144 22.384 210.424 22.384Z" fill="#3F3D56"/>
</svg>
