<svg width="319" height="96" viewBox="0 0 319 96" fill="none" xmlns="http://www.w3.org/2000/svg">
<path d="M92.5538 60.1161C96.6974 60.1161 100.02 61.3487 102.523 63.8139C105.067 66.2791 106.338 69.9975 106.338 74.9689V94.0741H94.6461V76.8794C94.6461 72.3188 92.8205 70.0385 89.1691 70.0385C87.1589 70.0385 85.5384 70.6958 84.3076 72.0107C83.1179 73.3255 82.523 75.2976 82.523 77.9271V94.0741H70.8307V60.6708H81.9691V64.307C83.282 62.9511 84.8409 61.924 86.6461 61.2255C88.4513 60.4859 90.4205 60.1161 92.5538 60.1161ZM145.679 60.6708V94.0741H134.541V90.4995C133.31 91.8554 131.833 92.8825 130.11 93.581C128.387 94.2796 126.561 94.6287 124.633 94.6287C120.325 94.6287 116.879 93.3551 114.295 90.8077C111.751 88.2603 110.479 84.4392 110.479 79.3446V60.6708H122.172V77.4341C122.172 79.9403 122.643 81.7688 123.587 82.9191C124.53 84.0695 125.905 84.6447 127.71 84.6447C129.556 84.6447 131.054 84.0078 132.202 82.7342C133.392 81.4194 133.987 79.4268 133.987 76.7561V60.6708H145.679ZM173.149 92.7182C172.164 93.3345 170.954 93.8069 169.518 94.1357C168.123 94.4645 166.626 94.6287 165.026 94.6287C160.677 94.6287 157.334 93.5604 154.995 91.424C152.657 89.2876 151.487 86.1032 151.487 81.8714V70.6548H146.626V61.9034H151.487V53.2136H163.18V61.9034H170.81V70.6548H163.18V81.7481C163.18 82.9397 163.487 83.8846 164.103 84.5831C164.759 85.2404 165.621 85.5692 166.687 85.5692C168.041 85.5692 169.231 85.22 170.257 84.5215L173.149 92.7182ZM185.719 64.6767C186.909 63.1565 188.447 62.0267 190.335 61.2871C192.263 60.5065 194.458 60.1161 196.919 60.1161V70.6548C195.852 70.5316 194.97 70.4699 194.273 70.4699C191.77 70.4699 189.801 71.1479 188.365 72.5037C186.97 73.8596 186.273 75.9344 186.273 78.7283V94.0741H174.581V60.6708H185.719V64.6767ZM198.667 60.6708H210.36V94.0741H198.667V60.6708ZM204.513 56.973C202.38 56.973 200.657 56.3773 199.344 55.1858C198.031 53.9943 197.375 52.5152 197.375 50.7484C197.375 48.9817 198.031 47.5026 199.344 46.3111C200.657 45.1196 202.38 44.5238 204.513 44.5238C206.647 44.5238 208.37 45.0991 209.683 46.2495C210.995 47.3588 211.652 48.7968 211.652 50.5636C211.652 52.4124 210.995 53.9532 209.683 55.1858C208.37 56.3773 206.647 56.973 204.513 56.973ZM214.881 48.3449H226.574V94.0741H214.881V48.3449ZM231.095 60.6708H242.787V94.0741H231.095V60.6708ZM236.941 56.973C234.808 56.973 233.085 56.3773 231.772 55.1858C230.459 53.9943 229.803 52.5152 229.803 50.7484C229.803 48.9817 230.459 47.5026 231.772 46.3111C233.085 45.1196 234.808 44.5238 236.941 44.5238C239.075 44.5238 240.798 45.0991 242.11 46.2495C243.423 47.3588 244.08 48.7968 244.08 50.5636C244.08 52.4124 243.423 53.9532 242.11 55.1858C240.798 56.3773 239.075 56.973 236.941 56.973ZM260.048 61.9034H267.986V70.6548H260.355V94.0741H248.663V70.6548H243.801V61.9034H248.663V61.0406C248.663 56.973 249.873 53.7477 252.294 51.3647C254.755 48.9817 258.181 47.7902 262.571 47.7902C264.048 47.7902 265.483 47.934 266.879 48.2216C268.273 48.5092 269.421 48.9406 270.325 49.5159L267.433 57.7742C266.283 57.1168 265.113 56.7881 263.925 56.7881C262.694 56.7881 261.729 57.1579 261.032 57.8975C260.376 58.637 260.048 59.7258 260.048 61.1638V61.9034ZM302.963 77.4341C302.963 77.5163 302.902 78.4818 302.779 80.3307H278.533C279.025 82.0563 279.969 83.3915 281.363 84.3366C282.8 85.2404 284.585 85.6924 286.717 85.6924C288.317 85.6924 289.692 85.4665 290.84 85.0145C292.031 84.5625 293.221 83.8229 294.41 82.7958L300.563 89.2053C297.323 92.8209 292.585 94.6287 286.348 94.6287C282.452 94.6287 279.025 93.8892 276.071 92.4101C273.117 90.931 270.821 88.8766 269.179 86.2471C267.579 83.6176 266.779 80.6388 266.779 77.3108C266.779 74.0238 267.56 71.0862 269.117 68.4978C270.717 65.8683 272.913 63.8139 275.702 62.3348C278.492 60.8557 281.631 60.1161 285.117 60.1161C288.44 60.1161 291.456 60.8146 294.163 62.2116C296.871 63.5674 299.006 65.5602 300.563 68.1896C302.163 70.7781 302.963 73.8596 302.963 77.4341ZM285.179 68.4361C283.375 68.4361 281.856 68.9498 280.625 69.9769C279.436 71.004 278.677 72.401 278.348 74.1677H292.01C291.683 72.401 290.902 71.004 289.671 69.9769C288.483 68.9498 286.985 68.4361 285.179 68.4361ZM310.2 94.6287C308.231 94.6287 306.569 93.9714 305.215 92.6566C303.861 91.3418 303.185 89.6778 303.185 87.6646C303.185 85.6102 303.842 83.9462 305.154 82.6726C306.508 81.399 308.19 80.7621 310.2 80.7621C312.252 80.7621 313.935 81.399 315.246 82.6726C316.56 83.9462 317.215 85.6102 317.215 87.6646C317.215 89.6778 316.538 91.3418 315.185 92.6566C313.873 93.9714 312.211 94.6287 310.2 94.6287Z" fill="#00B049"/>
<path d="M15.13 23.544C16.3887 23.7787 17.4233 24.408 18.234 25.432C19.0447 26.456 19.45 27.6293 19.45 28.952C19.45 30.1467 19.1513 31.2027 18.554 32.12C17.978 33.016 17.1353 33.72 16.026 34.232C14.9167 34.744 13.6047 35 12.09 35H2.458V12.664H11.674C13.1887 12.664 14.49 12.9093 15.578 13.4C16.6873 13.8907 17.5193 14.5733 18.074 15.448C18.65 16.3227 18.938 17.3147 18.938 18.424C18.938 19.7253 18.586 20.8133 17.882 21.688C17.1993 22.5627 16.282 23.1813 15.13 23.544ZM6.938 21.88H11.034C12.1007 21.88 12.922 21.6453 13.498 21.176C14.074 20.6853 14.362 19.992 14.362 19.096C14.362 18.2 14.074 17.5067 13.498 17.016C12.922 16.5253 12.1007 16.28 11.034 16.28H6.938V21.88ZM11.45 31.352C12.538 31.352 13.3807 31.096 13.978 30.584C14.5967 30.072 14.906 29.3467 14.906 28.408C14.906 27.448 14.586 26.7013 13.946 26.168C13.306 25.6133 12.442 25.336 11.354 25.336H6.938V31.352H11.45ZM39.5005 25.752C39.5005 26.392 39.4578 26.968 39.3725 27.48H26.4125C26.5192 28.76 26.9672 29.7627 27.7565 30.488C28.5458 31.2133 29.5165 31.576 30.6685 31.576C32.3325 31.576 33.5165 30.8613 34.2205 29.432H39.0525C38.5405 31.1387 37.5592 32.5467 36.1085 33.656C34.6578 34.744 32.8765 35.288 30.7645 35.288C29.0578 35.288 27.5218 34.9147 26.1565 34.168C24.8125 33.4 23.7565 32.3227 22.9885 30.936C22.2418 29.5493 21.8685 27.9493 21.8685 26.136C21.8685 24.3013 22.2418 22.6907 22.9885 21.304C23.7352 19.9173 24.7805 18.8507 26.1245 18.104C27.4685 17.3573 29.0152 16.984 30.7645 16.984C32.4498 16.984 33.9538 17.3467 35.2765 18.072C36.6205 18.7973 37.6552 19.832 38.3805 21.176C39.1272 22.4987 39.5005 24.024 39.5005 25.752ZM34.8605 24.472C34.8392 23.32 34.4232 22.4027 33.6125 21.72C32.8018 21.016 31.8098 20.664 30.6365 20.664C29.5272 20.664 28.5885 21.0053 27.8205 21.688C27.0738 22.3493 26.6152 23.2773 26.4445 24.472H34.8605ZM64.7865 17.016C66.9625 17.016 68.7118 17.688 70.0345 19.032C71.3785 20.3547 72.0505 22.2107 72.0505 24.6V35H67.5705V25.208C67.5705 23.8213 67.2185 22.7653 66.5145 22.04C65.8105 21.2933 64.8505 20.92 63.6345 20.92C62.4185 20.92 61.4478 21.2933 60.7225 22.04C60.0185 22.7653 59.6665 23.8213 59.6665 25.208V35H55.1865V25.208C55.1865 23.8213 54.8345 22.7653 54.1305 22.04C53.4265 21.2933 52.4665 20.92 51.2505 20.92C50.0132 20.92 49.0318 21.2933 48.3065 22.04C47.6025 22.7653 47.2505 23.8213 47.2505 25.208V35H42.7705V17.272H47.2505V19.416C47.8265 18.6693 48.5625 18.0827 49.4585 17.656C50.3758 17.2293 51.3785 17.016 52.4665 17.016C53.8532 17.016 55.0905 17.3147 56.1785 17.912C57.2665 18.488 58.1092 19.32 58.7065 20.408C59.2825 19.384 60.1145 18.5627 61.2025 17.944C62.3118 17.3253 63.5065 17.016 64.7865 17.016ZM91.3188 30.872L95.7988 17.272H100.567L94.0068 35H88.5668L82.0388 17.272H86.8388L91.3188 30.872ZM105.355 15.16C104.566 15.16 103.904 14.9147 103.371 14.424C102.859 13.912 102.603 13.2827 102.603 12.536C102.603 11.7893 102.859 11.1707 103.371 10.68C103.904 10.168 104.566 9.912 105.355 9.912C106.144 9.912 106.795 10.168 107.307 10.68C107.84 11.1707 108.107 11.7893 108.107 12.536C108.107 13.2827 107.84 13.912 107.307 14.424C106.795 14.9147 106.144 15.16 105.355 15.16ZM107.563 17.272V35H103.083V17.272H107.563ZM121.813 17.016C123.925 17.016 125.632 17.688 126.933 19.032C128.235 20.3547 128.885 22.2107 128.885 24.6V35H124.405V25.208C124.405 23.8 124.053 22.7227 123.349 21.976C122.645 21.208 121.685 20.824 120.469 20.824C119.232 20.824 118.251 21.208 117.525 21.976C116.821 22.7227 116.469 23.8 116.469 25.208V35H111.989V17.272H116.469V19.48C117.067 18.712 117.824 18.1147 118.741 17.688C119.68 17.24 120.704 17.016 121.813 17.016ZM131.993 26.072C131.993 24.28 132.345 22.6907 133.049 21.304C133.775 19.9173 134.756 18.8507 135.994 18.104C137.231 17.3573 138.607 16.984 140.122 16.984C141.274 16.984 142.372 17.24 143.418 17.752C144.463 18.2427 145.295 18.904 145.914 19.736V11.32H150.458V35H145.914V32.376C145.359 33.2507 144.58 33.9547 143.578 34.488C142.575 35.0213 141.412 35.288 140.09 35.288C138.596 35.288 137.231 34.904 135.994 34.136C134.756 33.368 133.775 32.2907 133.049 30.904C132.345 29.496 131.993 27.8853 131.993 26.072ZM145.946 26.136C145.946 25.048 145.732 24.12 145.306 23.352C144.879 22.5627 144.303 21.9653 143.578 21.56C142.852 21.1333 142.074 20.92 141.242 20.92C140.41 20.92 139.642 21.1227 138.938 21.528C138.234 21.9333 137.658 22.5307 137.21 23.32C136.783 24.088 136.57 25.0053 136.57 26.072C136.57 27.1387 136.783 28.0773 137.21 28.888C137.658 29.6773 138.234 30.2853 138.938 30.712C139.663 31.1387 140.431 31.352 141.242 31.352C142.074 31.352 142.852 31.1493 143.578 30.744C144.303 30.3173 144.879 29.72 145.306 28.952C145.732 28.1627 145.946 27.224 145.946 26.136ZM162.705 35.288C160.998 35.288 159.462 34.9147 158.097 34.168C156.732 33.4 155.654 32.3227 154.865 30.936C154.097 29.5493 153.713 27.9493 153.713 26.136C153.713 24.3227 154.108 22.7227 154.897 21.336C155.708 19.9493 156.806 18.8827 158.193 18.136C159.58 17.368 161.126 16.984 162.833 16.984C164.54 16.984 166.086 17.368 167.473 18.136C168.86 18.8827 169.948 19.9493 170.737 21.336C171.548 22.7227 171.953 24.3227 171.953 26.136C171.953 27.9493 171.537 29.5493 170.705 30.936C169.894 32.3227 168.785 33.4 167.377 34.168C165.99 34.9147 164.433 35.288 162.705 35.288ZM162.705 31.384C163.516 31.384 164.273 31.192 164.977 30.808C165.702 30.4027 166.278 29.8053 166.705 29.016C167.132 28.2267 167.345 27.2667 167.345 26.136C167.345 24.4507 166.897 23.16 166.001 22.264C165.126 21.3467 164.049 20.888 162.769 20.888C161.489 20.888 160.412 21.3467 159.537 22.264C158.684 23.16 158.257 24.4507 158.257 26.136C158.257 27.8213 158.673 29.1227 159.505 30.04C160.358 30.936 161.425 31.384 162.705 31.384ZM181.712 26.072C181.712 24.28 182.064 22.6907 182.768 21.304C183.494 19.9173 184.464 18.8507 185.68 18.104C186.918 17.3573 188.294 16.984 189.808 16.984C191.131 16.984 192.283 17.2507 193.264 17.784C194.267 18.3173 195.067 18.9893 195.664 19.8V17.272H200.176V35H195.664V32.408C195.088 33.24 194.288 33.9333 193.264 34.488C192.262 35.0213 191.099 35.288 189.776 35.288C188.283 35.288 186.918 34.904 185.68 34.136C184.464 33.368 183.494 32.2907 182.768 30.904C182.064 29.496 181.712 27.8853 181.712 26.072ZM195.664 26.136C195.664 25.048 195.451 24.12 195.024 23.352C194.598 22.5627 194.022 21.9653 193.296 21.56C192.571 21.1333 191.792 20.92 190.96 20.92C190.128 20.92 189.36 21.1227 188.656 21.528C187.952 21.9333 187.376 22.5307 186.928 23.32C186.502 24.088 186.288 25.0053 186.288 26.072C186.288 27.1387 186.502 28.0773 186.928 28.888C187.376 29.6773 187.952 30.2853 188.656 30.712C189.382 31.1387 190.15 31.352 190.96 31.352C191.792 31.352 192.571 31.1493 193.296 30.744C194.022 30.3173 194.598 29.72 195.024 28.952C195.451 28.1627 195.664 27.224 195.664 26.136ZM212.424 35.288C210.717 35.288 209.181 34.9147 207.816 34.168C206.45 33.4 205.373 32.3227 204.584 30.936C203.816 29.5493 203.432 27.9493 203.432 26.136C203.432 24.3227 203.826 22.7227 204.616 21.336C205.426 19.9493 206.525 18.8827 207.912 18.136C209.298 17.368 210.845 16.984 212.552 16.984C214.258 16.984 215.805 17.368 217.192 18.136C218.578 18.8827 219.666 19.9493 220.456 21.336C221.266 22.7227 221.672 24.3227 221.672 26.136C221.672 27.9493 221.256 29.5493 220.424 30.936C219.613 32.3227 218.504 33.4 217.096 34.168C215.709 34.9147 214.152 35.288 212.424 35.288ZM212.424 31.384C213.234 31.384 213.992 31.192 214.696 30.808C215.421 30.4027 215.997 29.8053 216.424 29.016C216.85 28.2267 217.064 27.2667 217.064 26.136C217.064 24.4507 216.616 23.16 215.72 22.264C214.845 21.3467 213.768 20.888 212.488 20.888C211.208 20.888 210.13 21.3467 209.256 22.264C208.402 23.16 207.976 24.4507 207.976 26.136C207.976 27.8213 208.392 29.1227 209.224 30.04C210.077 30.936 211.144 31.384 212.424 31.384Z" fill="#3F3D56"/>
</svg>
